{
 "asset": {
  "version": "2.0",
  "generator": "Enchanted torus generator"
 },
 "scene": 0,
 "scenes": [
  {
   "nodes": [
    0
   ]
  }
 ],
 "nodes": [
  {
   "name": "torus",
   "mesh": 0,
   "translation": [
    -1.0,
    0.32,
    1.6
   ],
   "rotation": [
    0.258819,
    0,
    0,
    0.9659258
   ]
  }
 ],
 "meshes": [
  {
   "name": "torus",
   "primitives": [
    {
     "attributes": {
      "POSITION": 0,
      "NORMAL": 1,
      "TEXCOORD_0": 2
     },
     "indices": 3,
     "material": 0
    }
   ]
  }
 ],
 "materials": [
  {
   "name": "brushedCopper",
   "pbrMetallicRoughness": {
    "baseColorFactor": [
     0.95,
     0.45,
     0.35,
     1.0
    ],
    "metallicFactor": 1.0,
    "roughnessFactor": 0.35
   }
  }
 ],
 "accessors": [
  {
   "bufferView": 0,
   "componentType": 5126,
   "count": 627,
   "type": "VEC3",
   "min": [
    -0.63,
    -0.17726539554219745,
    -0.63
   ],
   "max": [
    0.63,
    0.17726539554219745,
    0.63
   ]
  },
  {
   "bufferView": 1,
   "componentType": 5126,
   "count": 627,
   "type": "VEC3"
  },
  {
   "bufferView": 2,
   "componentType": 5126,
   "count": 627,
   "type": "VEC2"
  },
  {
   "bufferView": 3,
   "componentType": 5123,
   "count": 3456,
   "type": "SCALAR"
  }
 ],
 "bufferViews": [
  {
   "buffer": 0,
   "byteOffset": 0,
   "byteLength": 7524
  },
  {
   "buffer": 0,
   "byteOffset": 7524,
   "byteLength": 7524
  },
  {
   "buffer": 0,
   "byteOffset": 15048,
   "byteLength": 5016
  },
  {
   "buffer": 0,
   "byteOffset": 20064,
   "byteLength": 6912
  }
 ],
 "buffers": [
  {
   "byteLength": 26976,
   "uri": "data:application/octet-stream;base64,"
  }
 ]
}