{
 "asset": {
  "version": "2.0",
  "generator": "Enchanted walker generator"
 },
 "scene": 0,
 "scenes": [
  {
   "nodes": [
    0,
    19
   ]
  }
 ],
 "nodes": [
  {
   "name": "hips",
   "translation": [
    0.0,
    0.3,
    0.0
   ],
   "children": [
    1,
    13,
    16
   ]
  },
  {
   "name": "spine",
   "translation": [
    0.0,
    0.048,
    0.0
   ],
   "children": [
    2
   ]
  },
  {
   "name": "chest",
   "translation": [
    0.0,
    0.06,
    0.0
   ],
   "children": [
    3,
    5,
    9
   ]
  },
  {
   "name": "neck",
   "translation": [
    0.0,
    0.072,
    0.0
   ],
   "children": [
    4
   ]
  },
  {
   "name": "head",
   "translation": [
    0.0,
    0.048,
    0.0
   ]
  },
  {
   "name": "shoulderL",
   "translation": [
    0.03,
    0.057,
    0.0
   ],
   "children": [
    6
   ]
  },
  {
   "name": "upperArmL",
   "translation": [
    0.03,
    0.0,
    0.0
   ],
   "children": [
    7
   ]
  },
  {
   "name": "lowerArmL",
   "translation": [
    0.0,
    -0.093,
    0.0
   ],
   "children": [
    8
   ]
  },
  {
   "name": "handL",
   "translation": [
    0.0,
    -0.084,
    0.0
   ]
  },
  {
   "name": "shoulderR",
   "translation": [
    -0.03,
    0.057,
    0.0
   ],
   "children": [
    10
   ]
  },
  {
   "name": "upperArmR",
   "translation": [
    -0.03,
    0.0,
    0.0
   ],
   "children": [
    11
   ]
  },
  {
   "name": "lowerArmR",
   "translation": [
    0.0,
    -0.093,
    0.0
   ],
   "children": [
    12
   ]
  },
  {
   "name": "handR",
   "translation": [
    0.0,
    -0.084,
    0.0
   ]
  },
  {
   "name": "upperLegL",
   "translation": [
    0.0258,
    -0.012,
    0.0
   ],
   "children": [
    14
   ]
  },
  {
   "name": "lowerLegL",
   "translation": [
    0.0,
    -0.126,
    0.0
   ],
   "children": [
    15
   ]
  },
  {
   "name": "footL",
   "translation": [
    0.0,
    -0.132,
    0.0
   ]
  },
  {
   "name": "upperLegR",
   "translation": [
    -0.0258,
    -0.012,
    0.0
   ],
   "children": [
    17
   ]
  },
  {
   "name": "lowerLegR",
   "translation": [
    0.0,
    -0.126,
    0.0
   ],
   "children": [
    18
   ]
  },
  {
   "name": "footR",
   "translation": [
    0.0,
    -0.132,
    0.0
   ]
  },
  {
   "name": "walkerBody",
   "mesh": 0,
   "skin": 0,
   "translation": [
    0.0,
    -0.3,
    0.0
   ]
  }
 ],
 "skins": [
  {
   "name": "walkerRig",
   "joints": [
    0,
    1,
    2,
    3,
    4,
    5,
    6,
    7,
    8,
    9,
    10,
    11,
    12,
    13,
    14,
    15,
    16,
    17,
    18
   ],
   "inverseBindMatrices": 5
  }
 ],
 "meshes": [
  {
   "name": "walker",
   "primitives": [
    {
     "attributes": {
      "POSITION": 0,
      "NORMAL": 1,
      "JOINTS_0": 2,
      "WEIGHTS_0": 3
     },
     "indices": 4,
     "material": 0
    }
   ]
  }
 ],
 "materials": [
  {
   "name": "walkerSuit",
   "pbrMetallicRoughness": {
    "baseColorFactor": [
     0.88,
     0.42,
     0.16,
     1.0
    ],
    "metallicFactor": 0.0,
    "roughnessFactor": 0.55
   }
  }
 ],
 "animations": [
  {
   "name": "idle",
   "samplers": [
    {
     "input": 6,
     "output": 7,
     "interpolation": "LINEAR"
    },
    {
     "input": 6,
     "output": 8,
     "interpolation": "LINEAR"
    },
    {
     "input": 6,
     "output": 9,
     "interpolation": "LINEAR"
    },
    {
     "input": 6,
     "output": 10,
     "interpolation": "LINEAR"
    },
    {
     "input": 6,
     "output": 11,
     "interpolation": "LINEAR"
    },
    {
     "input": 6,
     "output": 12,
     "interpolation": "LINEAR"
    }
   ],
   "channels": [
    {
     "sampler": 0,
     "target": {
      "node": 1,
      "path": "rotation"
     }
    },
    {
     "sampler": 1,
     "target": {
      "node": 2,
      "path": "rotation"
     }
    },
    {
     "sampler": 2,
     "target": {
      "node": 4,
      "path": "rotation"
     }
    },
    {
     "sampler": 3,
     "target": {
      "node": 6,
      "path": "rotation"
     }
    },
    {
     "sampler": 4,
     "target": {
      "node": 10,
      "path": "rotation"
     }
    },
    {
     "sampler": 5,
     "target": {
      "node": 0,
      "path": "translation"
     }
    }
   ]
  },
  {
   "name": "walk",
   "samplers": [
    {
     "input": 13,
     "output": 14,
     "interpolation": "LINEAR"
    },
    {
     "input": 13,
     "output": 15,
     "interpolation": "LINEAR"
    },
    {
     "input": 13,
     "output": 16,
     "interpolation": "LINEAR"
    },
    {
     "input": 13,
     "output": 17,
     "interpolation": "LINEAR"
    },
    {
     "input": 13,
     "output": 18,
     "interpolation": "LINEAR"
    },
    {
     "input": 13,
     "output": 19,
     "interpolation": "LINEAR"
    },
    {
     "input": 13,
     "output": 20,
     "interpolation": "LINEAR"
    },
    {
     "input": 13,
     "output": 21,
     "interpolation": "LINEAR"
    },
    {
     "input": 13,
     "output": 22,
     "interpolation": "LINEAR"
    },
    {
     "input": 13,
     "output": 23,
     "interpolation": "LINEAR"
    },
    {
     "input": 13,
     "output": 24,
     "interpolation": "LINEAR"
    },
    {
     "input": 13,
     "output": 25,
     "interpolation": "LINEAR"
    }
   ],
   "channels": [
    {
     "sampler": 0,
     "target": {
      "node": 13,
      "path": "rotation"
     }
    },
    {
     "sampler": 1,
     "target": {
      "node": 16,
      "path": "rotation"
     }
    },
    {
     "sampler": 2,
     "target": {
      "node": 14,
      "path": "rotation"
     }
    },
    {
     "sampler": 3,
     "target": {
      "node": 17,
      "path": "rotation"
     }
    },
    {
     "sampler": 4,
     "target": {
      "node": 6,
      "path": "rotation"
     }
    },
    {
     "sampler": 5,
     "target": {
      "node": 10,
      "path": "rotation"
     }
    },
    {
     "sampler": 6,
     "target": {
      "node": 7,
      "path": "rotation"
     }
    },
    {
     "sampler": 7,
     "target": {
      "node": 11,
      "path": "rotation"
     }
    },
    {
     "sampler": 8,
     "target": {
      "node": 1,
      "path": "rotation"
     }
    },
    {
     "sampler": 9,
     "target": {
      "node": 2,
      "path": "rotation"
     }
    },
    {
     "sampler": 10,
     "target": {
      "node": 0,
      "path": "translation"
     }
    },
    {
     "sampler": 11,
     "target": {
      "node": 0,
      "path": "rotation"
     }
    }
   ]
  },
  {
   "name": "run",
   "samplers": [
    {
     "input": 26,
     "output": 27,
     "interpolation": "LINEAR"
    },
    {
     "input": 26,
     "output": 28,
     "interpolation": "LINEAR"
    },
    {
     "input": 26,
     "output": 29,
     "interpolation": "LINEAR"
    },
    {
     "input": 26,
     "output": 30,
     "interpolation": "LINEAR"
    },
    {
     "input": 26,
     "output": 31,
     "interpolation": "LINEAR"
    },
    {
     "input": 26,
     "output": 32,
     "interpolation": "LINEAR"
    },
    {
     "input": 26,
     "output": 33,
     "interpolation": "LINEAR"
    },
    {
     "input": 26,
     "output": 34,
     "interpolation": "LINEAR"
    },
    {
     "input": 26,
     "output": 35,
     "interpolation": "LINEAR"
    },
    {
     "input": 26,
     "output": 36,
     "interpolation": "LINEAR"
    },
    {
     "input": 26,
     "output": 37,
     "interpolation": "LINEAR"
    },
    {
     "input": 26,
     "output": 38,
     "interpolation": "LINEAR"
    }
   ],
   "channels": [
    {
     "sampler": 0,
     "target": {
      "node": 13,
      "path": "rotation"
     }
    },
    {
     "sampler": 1,
     "target": {
      "node": 16,
      "path": "rotation"
     }
    },
    {
     "sampler": 2,
     "target": {
      "node": 14,
      "path": "rotation"
     }
    },
    {
     "sampler": 3,
     "target": {
      "node": 17,
      "path": "rotation"
     }
    },
    {
     "sampler": 4,
     "target": {
      "node": 6,
      "path": "rotation"
     }
    },
    {
     "sampler": 5,
     "target": {
      "node": 10,
      "path": "rotation"
     }
    },
    {
     "sampler": 6,
     "target": {
      "node": 7,
      "path": "rotation"
     }
    },
    {
     "sampler": 7,
     "target": {
      "node": 11,
      "path": "rotation"
     }
    },
    {
     "sampler": 8,
     "target": {
      "node": 1,
      "path": "rotation"
     }
    },
    {
     "sampler": 9,
     "target": {
      "node": 2,
      "path": "rotation"
     }
    },
    {
     "sampler": 10,
     "target": {
      "node": 0,
      "path": "translation"
     }
    },
    {
     "sampler": 11,
     "target": {
      "node": 0,
      "path": "rotation"
     }
    }
   ]
  },
  {
   "name": "jump",
   "samplers": [
    {
     "input": 39,
     "output": 40,
     "interpolation": "LINEAR"
    },
    {
     "input": 39,
     "output": 41,
     "interpolation": "LINEAR"
    },
    {
     "input": 39,
     "output": 42,
     "interpolation": "LINEAR"
    },
    {
     "input": 39,
     "output": 43,
     "interpolation": "LINEAR"
    },
    {
     "input": 39,
     "output": 44,
     "interpolation": "LINEAR"
    },
    {
     "input": 39,
     "output": 45,
     "interpolation": "LINEAR"
    },
    {
     "input": 39,
     "output": 46,
     "interpolation": "LINEAR"
    },
    {
     "input": 39,
     "output": 47,
     "interpolation": "LINEAR"
    }
   ],
   "channels": [
    {
     "sampler": 0,
     "target": {
      "node": 13,
      "path": "rotation"
     }
    },
    {
     "sampler": 1,
     "target": {
      "node": 16,
      "path": "rotation"
     }
    },
    {
     "sampler": 2,
     "target": {
      "node": 14,
      "path": "rotation"
     }
    },
    {
     "sampler": 3,
     "target": {
      "node": 17,
      "path": "rotation"
     }
    },
    {
     "sampler": 4,
     "target": {
      "node": 6,
      "path": "rotation"
     }
    },
    {
     "sampler": 5,
     "target": {
      "node": 10,
      "path": "rotation"
     }
    },
    {
     "sampler": 6,
     "target": {
      "node": 1,
      "path": "rotation"
     }
    },
    {
     "sampler": 7,
     "target": {
      "node": 0,
      "path": "translation"
     }
    }
   ]
  }
 ],
 "accessors": [
  {
   "bufferView": 0,
   "componentType": 5126,
   "count": 370,
   "type": "VEC3",
   "min": [
    -0.078,
    -0.0012,
    -0.0348
   ],
   "max": [
    0.078,
    0.579,
    0.0528
   ]
  },
  {
   "bufferView": 1,
   "componentType": 5126,
   "count": 370,
   "type": "VEC3"
  },
  {
   "bufferView": 2,
   "componentType": 5123,
   "count": 370,
   "type": "VEC4"
  },
  {
   "bufferView": 3,
   "componentType": 5126,
   "count": 370,
   "type": "VEC4"
  },
  {
   "bufferView": 4,
   "componentType": 5125,
   "count": 1128,
   "type": "SCALAR"
  },
  {
   "bufferView": 5,
   "componentType": 5126,
   "count": 19,
   "type": "MAT4"
  },
  {
   "bufferView": 6,
   "componentType": 5126,
   "count": 17,
   "type": "SCALAR",
   "min": [
    0.0
   ],
   "max": [
    2.0
   ]
  },
  {
   "bufferView": 7,
   "componentType": 5126,
   "count": 17,
   "type": "VEC4"
  },
  {
   "bufferView": 8,
   "componentType": 5126,
   "count": 17,
   "type": "VEC4"
  },
  {
   "bufferView": 9,
   "componentType": 5126,
   "count": 17,
   "type": "VEC4"
  },
  {
   "bufferView": 10,
   "componentType": 5126,
   "count": 17,
   "type": "VEC4"
  },
  {
   "bufferView": 11,
   "componentType": 5126,
   "count": 17,
   "type": "VEC4"
  },
  {
   "bufferView": 12,
   "componentType": 5126,
   "count": 17,
   "type": "VEC3"
  },
  {
   "bufferView": 13,
   "componentType": 5126,
   "count": 21,
   "type": "SCALAR",
   "min": [
    0.0
   ],
   "max": [
    1.0
   ]
  },
  {
   "bufferView": 14,
   "componentType": 5126,
   "count": 21,
   "type": "VEC4"
  },
  {
   "bufferView": 15,
   "componentType": 5126,
   "count": 21,
   "type": "VEC4"
  },
  {
   "bufferView": 16,
   "componentType": 5126,
   "count": 21,
   "type": "VEC4"
  },
  {
   "bufferView": 17,
   "componentType": 5126,
   "count": 21,
   "type": "VEC4"
  },
  {
   "bufferView": 18,
   "componentType": 5126,
   "count": 21,
   "type": "VEC4"
  },
  {
   "bufferView": 19,
   "componentType": 5126,
   "count": 21,
   "type": "VEC4"
  },
  {
   "bufferView": 20,
   "componentType": 5126,
   "count": 21,
   "type": "VEC4"
  },
  {
   "bufferView": 21,
   "componentType": 5126,
   "count": 21,
   "type": "VEC4"
  },
  {
   "bufferView": 22,
   "componentType": 5126,
   "count": 21,
   "type": "VEC4"
  },
  {
   "bufferView": 23,
   "componentType": 5126,
   "count": 21,
   "type": "VEC4"
  },
  {
   "bufferView": 24,
   "componentType": 5126,
   "count": 21,
   "type": "VEC3"
  },
  {
   "bufferView": 25,
   "componentType": 5126,
   "count": 21,
   "type": "VEC4"
  },
  {
   "bufferView": 26,
   "componentType": 5126,
   "count": 21,
   "type": "SCALAR",
   "min": [
    0.0
   ],
   "max": [
    0.62
   ]
  },
  {
   "bufferView": 27,
   "componentType": 5126,
   "count": 21,
   "type": "VEC4"
  },
  {
   "bufferView": 28,
   "componentType": 5126,
   "count": 21,
   "type": "VEC4"
  },
  {
   "bufferView": 29,
   "componentType": 5126,
   "count": 21,
   "type": "VEC4"
  },
  {
   "bufferView": 30,
   "componentType": 5126,
   "count": 21,
   "type": "VEC4"
  },
  {
   "bufferView": 31,
   "componentType": 5126,
   "count": 21,
   "type": "VEC4"
  },
  {
   "bufferView": 32,
   "componentType": 5126,
   "count": 21,
   "type": "VEC4"
  },
  {
   "bufferView": 33,
   "componentType": 5126,
   "count": 21,
   "type": "VEC4"
  },
  {
   "bufferView": 34,
   "componentType": 5126,
   "count": 21,
   "type": "VEC4"
  },
  {
   "bufferView": 35,
   "componentType": 5126,
   "count": 21,
   "type": "VEC4"
  },
  {
   "bufferView": 36,
   "componentType": 5126,
   "count": 21,
   "type": "VEC4"
  },
  {
   "bufferView": 37,
   "componentType": 5126,
   "count": 21,
   "type": "VEC3"
  },
  {
   "bufferView": 38,
   "componentType": 5126,
   "count": 21,
   "type": "VEC4"
  },
  {
   "bufferView": 39,
   "componentType": 5126,
   "count": 19,
   "type": "SCALAR",
   "min": [
    0.0
   ],
   "max": [
    0.9
   ]
  },
  {
   "bufferView": 40,
   "componentType": 5126,
   "count": 19,
   "type": "VEC4"
  },
  {
   "bufferView": 41,
   "componentType": 5126,
   "count": 19,
   "type": "VEC4"
  },
  {
   "bufferView": 42,
   "componentType": 5126,
   "count": 19,
   "type": "VEC4"
  },
  {
   "bufferView": 43,
   "componentType": 5126,
   "count": 19,
   "type": "VEC4"
  },
  {
   "bufferView": 44,
   "componentType": 5126,
   "count": 19,
   "type": "VEC4"
  },
  {
   "bufferView": 45,
   "componentType": 5126,
   "count": 19,
   "type": "VEC4"
  },
  {
   "bufferView": 46,
   "componentType": 5126,
   "count": 19,
   "type": "VEC4"
  },
  {
   "bufferView": 47,
   "componentType": 5126,
   "count": 19,
   "type": "VEC3"
  }
 ],
 "bufferViews": [
  {
   "buffer": 0,
   "byteOffset": 0,
   "byteLength": 4440,
   "target": 34962
  },
  {
   "buffer": 0,
   "byteOffset": 4440,
   "byteLength": 4440,
   "target": 34962
  },
  {
   "buffer": 0,
   "byteOffset": 8880,
   "byteLength": 2960,
   "target": 34962
  },
  {
   "buffer": 0,
   "byteOffset": 11840,
   "byteLength": 5920,
   "target": 34962
  },
  {
   "buffer": 0,
   "byteOffset": 17760,
   "byteLength": 4512,
   "target": 34963
  },
  {
   "buffer": 0,
   "byteOffset": 22272,
   "byteLength": 1216
  },
  {
   "buffer": 0,
   "byteOffset": 23488,
   "byteLength": 68
  },
  {
   "buffer": 0,
   "byteOffset": 23556,
   "byteLength": 272
  },
  {
   "buffer": 0,
   "byteOffset": 23828,
   "byteLength": 272
  },
  {
   "buffer": 0,
   "byteOffset": 24100,
   "byteLength": 272
  },
  {
   "buffer": 0,
   "byteOffset": 24372,
   "byteLength": 272
  },
  {
   "buffer": 0,
   "byteOffset": 24644,
   "byteLength": 272
  },
  {
   "buffer": 0,
   "byteOffset": 24916,
   "byteLength": 204
  },
  {
   "buffer": 0,
   "byteOffset": 25120,
   "byteLength": 84
  },
  {
   "buffer": 0,
   "byteOffset": 25204,
   "byteLength": 336
  },
  {
   "buffer": 0,
   "byteOffset": 25540,
   "byteLength": 336
  },
  {
   "buffer": 0,
   "byteOffset": 25876,
   "byteLength": 336
  },
  {
   "buffer": 0,
   "byteOffset": 26212,
   "byteLength": 336
  },
  {
   "buffer": 0,
   "byteOffset": 26548,
   "byteLength": 336
  },
  {
   "buffer": 0,
   "byteOffset": 26884,
   "byteLength": 336
  },
  {
   "buffer": 0,
   "byteOffset": 27220,
   "byteLength": 336
  },
  {
   "buffer": 0,
   "byteOffset": 27556,
   "byteLength": 336
  },
  {
   "buffer": 0,
   "byteOffset": 27892,
   "byteLength": 336
  },
  {
   "buffer": 0,
   "byteOffset": 28228,
   "byteLength": 336
  },
  {
   "buffer": 0,
   "byteOffset": 28564,
   "byteLength": 252
  },
  {
   "buffer": 0,
   "byteOffset": 28816,
   "byteLength": 336
  },
  {
   "buffer": 0,
   "byteOffset": 29152,
   "byteLength": 84
  },
  {
   "buffer": 0,
   "byteOffset": 29236,
   "byteLength": 336
  },
  {
   "buffer": 0,
   "byteOffset": 29572,
   "byteLength": 336
  },
  {
   "buffer": 0,
   "byteOffset": 29908,
   "byteLength": 336
  },
  {
   "buffer": 0,
   "byteOffset": 30244,
   "byteLength": 336
  },
  {
   "buffer": 0,
   "byteOffset": 30580,
   "byteLength": 336
  },
  {
   "buffer": 0,
   "byteOffset": 30916,
   "byteLength": 336
  },
  {
   "buffer": 0,
   "byteOffset": 31252,
   "byteLength": 336
  },
  {
   "buffer": 0,
   "byteOffset": 31588,
   "byteLength": 336
  },
  {
   "buffer": 0,
   "byteOffset": 31924,
   "byteLength": 336
  },
  {
   "buffer": 0,
   "byteOffset": 32260,
   "byteLength": 336
  },
  {
   "buffer": 0,
   "byteOffset": 32596,
   "byteLength": 252
  },
  {
   "buffer": 0,
   "byteOffset": 32848,
   "byteLength": 336
  },
  {
   "buffer": 0,
   "byteOffset": 33184,
   "byteLength": 76
  },
  {
   "buffer": 0,
   "byteOffset": 33260,
   "byteLength": 304
  },
  {
   "buffer": 0,
   "byteOffset": 33564,
   "byteLength": 304
  },
  {
   "buffer": 0,
   "byteOffset": 33868,
   "byteLength": 304
  },
  {
   "buffer": 0,
   "byteOffset": 34172,
   "byteLength": 304
  },
  {
   "buffer": 0,
   "byteOffset": 34476,
   "byteLength": 304
  },
  {
   "buffer": 0,
   "byteOffset": 34780,
   "byteLength": 304
  },
  {
   "buffer": 0,
   "byteOffset": 35084,
   "byteLength": 304
  },
  {
   "buffer": 0,
   "byteOffset": 35388,
   "byteLength": 228
  }
 ],
 "buffers": [
  {
   "byteLength": 35616,
   "uri": "data:application/octet-stream;base64,"
  }
 ]
}
