{
 "asset": {
  "version": "2.0",
  "generator": "Enchanted waver generator"
 },
 "scene": 0,
 "scenes": [
  {
   "nodes": [
    0,
    3
   ]
  }
 ],
 "nodes": [
  {
   "name": "waverRoot",
   "children": [
    1
   ]
  },
  {
   "name": "waverMid",
   "translation": [
    0,
    0.5,
    0
   ],
   "children": [
    2
   ]
  },
  {
   "name": "waverTip",
   "translation": [
    0,
    0.7,
    0
   ]
  },
  {
   "name": "waver",
   "mesh": 0,
   "skin": 0,
   "translation": [
    -1.9,
    0.0,
    -0.7
   ]
  }
 ],
 "skins": [
  {
   "name": "waverRig",
   "joints": [
    0,
    1,
    2
   ],
   "inverseBindMatrices": 5
  }
 ],
 "meshes": [
  {
   "name": "waver",
   "primitives": [
    {
     "attributes": {
      "POSITION": 0,
      "NORMAL": 1,
      "JOINTS_0": 2,
      "WEIGHTS_0": 3
     },
     "indices": 4,
     "material": 0
    }
   ]
  }
 ],
 "materials": [
  {
   "name": "waverCloth",
   "pbrMetallicRoughness": {
    "baseColorFactor": [
     0.78,
     0.34,
     0.16,
     1.0
    ],
    "metallicFactor": 0.0,
    "roughnessFactor": 0.65
   }
  }
 ],
 "animations": [
  {
   "name": "sway",
   "samplers": [
    {
     "input": 6,
     "output": 7,
     "interpolation": "LINEAR"
    },
    {
     "input": 6,
     "output": 8,
     "interpolation": "LINEAR"
    }
   ],
   "channels": [
    {
     "sampler": 0,
     "target": {
      "node": 1,
      "path": "rotation"
     }
    },
    {
     "sampler": 1,
     "target": {
      "node": 2,
      "path": "rotation"
     }
    }
   ]
  }
 ],
 "accessors": [
  {
   "bufferView": 0,
   "componentType": 5126,
   "count": 104,
   "type": "VEC3",
   "min": [
    -0.11,
    0.0,
    -0.11
   ],
   "max": [
    0.11,
    1.2,
    0.11
   ]
  },
  {
   "bufferView": 1,
   "componentType": 5126,
   "count": 104,
   "type": "VEC3"
  },
  {
   "bufferView": 2,
   "componentType": 5123,
   "count": 104,
   "type": "VEC4"
  },
  {
   "bufferView": 3,
   "componentType": 5126,
   "count": 104,
   "type": "VEC4"
  },
  {
   "bufferView": 4,
   "componentType": 5125,
   "count": 576,
   "type": "SCALAR"
  },
  {
   "bufferView": 5,
   "componentType": 5126,
   "count": 3,
   "type": "MAT4"
  },
  {
   "bufferView": 6,
   "componentType": 5126,
   "count": 17,
   "type": "SCALAR",
   "min": [
    0.0
   ],
   "max": [
    2.0
   ]
  },
  {
   "bufferView": 7,
   "componentType": 5126,
   "count": 17,
   "type": "VEC4"
  },
  {
   "bufferView": 8,
   "componentType": 5126,
   "count": 17,
   "type": "VEC4"
  }
 ],
 "bufferViews": [
  {
   "buffer": 0,
   "byteOffset": 0,
   "byteLength": 1248,
   "target": 34962
  },
  {
   "buffer": 0,
   "byteOffset": 1248,
   "byteLength": 1248,
   "target": 34962
  },
  {
   "buffer": 0,
   "byteOffset": 2496,
   "byteLength": 832,
   "target": 34962
  },
  {
   "buffer": 0,
   "byteOffset": 3328,
   "byteLength": 1664,
   "target": 34962
  },
  {
   "buffer": 0,
   "byteOffset": 4992,
   "byteLength": 2304,
   "target": 34963
  },
  {
   "buffer": 0,
   "byteOffset": 7296,
   "byteLength": 192
  },
  {
   "buffer": 0,
   "byteOffset": 7488,
   "byteLength": 68
  },
  {
   "buffer": 0,
   "byteOffset": 7556,
   "byteLength": 272
  },
  {
   "buffer": 0,
   "byteOffset": 7828,
   "byteLength": 272
  }
 ],
 "buffers": [
  {
   "byteLength": 8100,
   "uri": "data:application/octet-stream;base64,"
  }
 ]
}
